<svg width="29" height="18" viewBox="0 0 29 18" fill="none" xmlns="http://www.w3.org/2000/svg">
<path d="M1.5 2.5H26.832C27.0972 2.5 27.3516 2.39464 27.5391 2.20711C27.7266 2.01957 27.832 1.76521 27.832 1.5C27.832 1.23479 27.7266 0.980431 27.5391 0.792891C27.3516 0.605356 27.0972 0.5 26.832 0.5H1.5C1.23478 0.5 0.98043 0.605356 0.792893 0.792893C0.605357 0.980429 0.5 1.23478 0.5 1.5C0.5 1.76522 0.605357 2.01957 0.792893 2.20711C0.98043 2.39464 1.23478 2.5 1.5 2.5ZM1.5 9.75H26.832C27.0972 9.75 27.3516 9.64464 27.5391 9.45711C27.7266 9.26957 27.832 9.01521 27.832 8.75C27.832 8.48479 27.7266 8.23043 27.5391 8.04289C27.3516 7.85536 27.0972 7.75 26.832 7.75H1.5C1.23478 7.75 0.98043 7.85536 0.792893 8.04289C0.605357 8.23043 0.5 8.48478 0.5 8.75C0.5 9.01522 0.605357 9.26957 0.792893 9.45711C0.98043 9.64464 1.23478 9.75 1.5 9.75ZM1.5 17H26.832C27.0972 17 27.3516 16.8946 27.5391 16.7071C27.7266 16.5196 27.832 16.2652 27.832 16C27.832 15.7348 27.7266 15.4804 27.5391 15.2929C27.3516 15.1054 27.0972 15 26.832 15H1.5C1.23478 15 0.98043 15.1054 0.792893 15.2929C0.605357 15.4804 0.5 15.7348 0.5 16C0.5 16.2652 0.605357 16.5196 0.792893 16.7071C0.98043 16.8946 1.23478 17 1.5 17Z" fill="#222222" stroke="#222222"/>
</svg>
