<svg width="43" height="43" viewBox="0 0 43 43" fill="none" xmlns="http://www.w3.org/2000/svg">
<path d="M21.5 0C9.64418 0 0 9.6451 0 21.5C0 33.3549 9.64418 43 21.5 43C33.3558 43 43 33.3549 43 21.5C43 9.6451 33.3558 0 21.5 0ZM30.0472 22.2533L17.5055 30.3158C17.3586 30.4111 17.1888 30.4584 17.0209 30.4584C16.8739 30.4584 16.7252 30.4216 16.5922 30.349C16.3035 30.1915 16.125 29.8905 16.125 29.5625V13.4375C16.125 13.1095 16.3035 12.8085 16.5922 12.651C16.8757 12.4953 17.2308 12.5049 17.5055 12.6842L30.0472 20.7467C30.3027 20.9112 30.4584 21.1956 30.4584 21.5C30.4584 21.8044 30.3027 22.0887 30.0472 22.2533Z" fill="#9F2D2D"/>
<path d="M30.4042 20.2736C31.0303 20.6549 31.0469 21.5578 30.4353 21.9619L17.5513 30.475C16.8865 30.9143 16 30.4375 16 29.6407L16 13.28C16 12.4997 16.8538 12.0201 17.5202 12.4259L30.4042 20.2736Z" fill="#FFFEFE"/>
</svg>
