<svg width="14" height="14" viewBox="0 0 14 14" fill="none" xmlns="http://www.w3.org/2000/svg">
<path d="M13.8674 13.2386L10.2528 9.68173C11.1994 8.65332 11.781 7.29323 11.781 5.7966C11.7805 2.59502 9.14346 0 5.89025 0C2.63704 0 0 2.59502 0 5.7966C0 8.99817 2.63704 11.5932 5.89025 11.5932C7.29586 11.5932 8.58505 11.107 9.5977 10.2987L13.2264 13.8696C13.4032 14.0438 13.6902 14.0438 13.867 13.8696C14.0443 13.6955 14.0443 13.4128 13.8674 13.2386ZM5.89025 10.7014C3.13768 10.7014 0.906298 8.50542 0.906298 5.7966C0.906298 3.08777 3.13768 0.89184 5.89025 0.89184C8.64284 0.89184 10.8742 3.08777 10.8742 5.7966C10.8742 8.50542 8.64284 10.7014 5.89025 10.7014Z" fill="#8B8B8B"/>
</svg>
