<svg width="41" height="40" viewBox="0 0 41 40" fill="none" xmlns="http://www.w3.org/2000/svg">
<path d="M19.1614 16.875V2.5H7.34482C7.09072 2.5 6.84702 2.59877 6.66734 2.77459C6.48766 2.9504 6.38672 3.18886 6.38672 3.4375V36.5625C6.38672 36.8111 6.48766 37.0496 6.66734 37.2254C6.84702 37.4012 7.09072 37.5 7.34482 37.5H33.533C33.7871 37.5 34.0308 37.4012 34.2105 37.2254C34.3902 37.0496 34.4911 36.8111 34.4911 36.5625V17.5H19.8002C19.6308 17.5 19.4683 17.4342 19.3485 17.3169C19.2287 17.1997 19.1614 17.0408 19.1614 16.875Z" fill="#9F2D2D"/>
<path d="M21.7168 3.25702V14.6875C21.7168 14.7704 21.7504 14.8499 21.8103 14.9085C21.8702 14.9671 21.9515 15 22.0362 15H33.7179C33.7494 15 33.7803 14.9909 33.8065 14.9738C33.8328 14.9567 33.8533 14.9323 33.8654 14.9038C33.8775 14.8753 33.8808 14.8439 33.8747 14.8136C33.8686 14.7833 33.8535 14.7555 33.8312 14.7336L21.9891 3.14608C21.9667 3.12432 21.9382 3.10953 21.9073 3.10358C21.8763 3.09763 21.8442 3.10078 21.8151 3.11265C21.786 3.12452 21.7611 3.14457 21.7436 3.17026C21.7261 3.19596 21.7168 3.22615 21.7168 3.25702Z" fill="#9F2D2D"/>
</svg>
