<svg width="19" height="22" viewBox="0 0 19 22" fill="none" xmlns="http://www.w3.org/2000/svg">
<path d="M6.82324 18.1184C6.82324 18.3195 6.74335 18.5124 6.60114 18.6546C6.45893 18.7968 6.26606 18.8767 6.06494 18.8767C5.86383 18.8767 5.67095 18.7968 5.52874 18.6546C5.38653 18.5124 5.30664 18.3195 5.30664 18.1184V9.01881C5.30664 8.81769 5.38653 8.62482 5.52874 8.48261C5.67095 8.3404 5.86383 8.2605 6.06494 8.2605C6.26606 8.2605 6.45893 8.3404 6.60114 8.48261C6.74335 8.62482 6.82324 8.81769 6.82324 9.01881V18.1184ZM9.85645 18.1184C9.85645 18.3195 9.77655 18.5124 9.63434 18.6546C9.49214 18.7968 9.29926 18.8767 9.09814 18.8767C8.89703 18.8767 8.70415 18.7968 8.56194 18.6546C8.41974 18.5124 8.33984 18.3195 8.33984 18.1184V9.01881C8.33984 8.81769 8.41974 8.62482 8.56194 8.48261C8.70415 8.3404 8.89703 8.2605 9.09814 8.2605C9.29926 8.2605 9.49214 8.3404 9.63434 8.48261C9.77655 8.62482 9.85645 8.81769 9.85645 9.01881V18.1184ZM12.8896 18.1184C12.8896 18.3195 12.8098 18.5124 12.6675 18.6546C12.5253 18.7968 12.3325 18.8767 12.1313 18.8767C11.9302 18.8767 11.7374 18.7968 11.5951 18.6546C11.4529 18.5124 11.373 18.3195 11.373 18.1184V9.01881C11.373 8.81769 11.4529 8.62482 11.5951 8.48261C11.7374 8.3404 11.9302 8.2605 12.1313 8.2605C12.3325 8.2605 12.5253 8.3404 12.6675 8.48261C12.8098 8.62482 12.8896 8.81769 12.8896 9.01881V18.1184ZM11.373 2.1941H6.82324C6.84455 1.60513 7.09346 1.04737 7.5176 0.638165C7.94174 0.228959 8.50805 0.00019658 9.09741 1.26634e-07C9.68677 -0.000196326 10.2532 0.228188 10.6777 0.637112C11.1021 1.04604 11.3513 1.60514 11.373 2.1941Z" fill="#9F2D2D"/>
<path d="M0.758301 2.95242C0.557187 2.95242 0.36431 2.87253 0.222101 2.73032C0.0798923 2.58811 0 2.39524 0 2.19412C0 1.99301 0.0798923 1.80013 0.222101 1.65792C0.36431 1.51571 0.557187 1.43582 0.758301 1.43582H17.4409C17.642 1.43582 17.8349 1.51571 17.9771 1.65792C18.1193 1.80013 18.1992 1.99301 18.1992 2.19412C18.1992 2.39524 18.1193 2.58811 17.9771 2.73032C17.8349 2.87253 17.642 2.95242 17.4409 2.95242H0.758301Z" fill="#9F2D2D"/>
<path fill-rule="evenodd" clip-rule="evenodd" d="M15.9233 3.71222H2.27393C2.07281 3.71222 1.87994 3.79211 1.73773 3.93432C1.59552 4.07653 1.51562 4.26941 1.51562 4.47052V21.1531C1.51562 21.3543 1.59552 21.5471 1.73773 21.6893C1.87994 21.8315 2.07281 21.9114 2.27393 21.9114H15.9233C16.1245 21.9114 16.3173 21.8315 16.4595 21.6893C16.6017 21.5471 16.6816 21.3543 16.6816 21.1531V4.47052C16.6816 4.26941 16.6017 4.07653 16.4595 3.93432C16.3173 3.79211 16.1245 3.71222 15.9233 3.71222ZM3.03223 20.3948V5.22882H15.165V20.3948H3.03223Z" fill="#9F2D2D"/>
</svg>
