<svg width="25" height="24" viewBox="0 0 25 24" fill="none" xmlns="http://www.w3.org/2000/svg">
<path d="M24.0059 3.09592C24.0059 9.03002 24.0059 14.97 24.0059 20.9041C23.9883 20.9451 23.9648 20.9919 23.959 21.033C23.707 22.6966 22.248 23.9854 20.5723 23.9912C18.5039 24.0029 16.4297 23.9912 14.3613 23.9971C14.1914 23.9971 14.1562 23.9444 14.1562 23.7862C14.1621 21.0857 14.1621 18.3852 14.1562 15.6788C14.1562 15.5031 14.2031 15.462 14.3789 15.462C15.4395 15.4679 16.5059 15.462 17.5664 15.4679C17.7363 15.4679 17.7949 15.4152 17.8184 15.257C17.9414 14.4662 18.0645 13.6695 18.2109 12.8846C18.252 12.6561 18.1758 12.6502 18 12.6502C16.7988 12.6561 15.5918 12.6502 14.3906 12.6561C14.2148 12.6561 14.1504 12.6209 14.1562 12.4276C14.168 11.5899 14.1621 10.7581 14.1621 9.92043C14.1621 9.03002 14.7539 8.43837 15.6445 8.43251C16.4883 8.43251 17.332 8.42665 18.1758 8.43837C18.334 8.43837 18.3867 8.40322 18.3867 8.23334C18.375 7.4308 18.375 6.62241 18.3867 5.81987C18.3867 5.64999 18.3398 5.61484 18.1758 5.61484C17.0918 5.6207 16.002 5.61484 14.918 5.6207C14.6836 5.6207 14.4492 5.64413 14.2207 5.68514C12.5156 6.0249 11.3672 7.42495 11.3496 9.18233C11.3438 10.2602 11.3438 11.3381 11.3496 12.4159C11.3496 12.5917 11.3145 12.6561 11.1211 12.6502C10.3301 12.6385 9.54492 12.6502 8.75391 12.6385C8.56055 12.6327 8.52539 12.6971 8.52539 12.8728C8.53125 13.6637 8.53711 14.4486 8.52539 15.2394C8.52539 15.4152 8.56641 15.462 8.74219 15.462C9.5332 15.4503 10.3184 15.462 11.1094 15.4562C11.2852 15.4562 11.3438 15.4913 11.3438 15.6846C11.3379 18.3793 11.3379 21.074 11.3438 23.7686C11.3438 23.9619 11.2852 23.9971 11.1094 23.9971C8.57812 23.9912 6.04688 23.9971 3.51562 23.9912C1.55859 23.9854 0 22.4389 0 20.4882C0.00585938 14.8294 0 9.16476 0.0175781 3.50598C0.0234375 2.05907 0.738281 1.0105 2.01562 0.34269C2.35547 0.166952 2.73633 0.102515 3.09961 0.00292969C9.03516 0.00292969 14.9766 0.00292969 20.9121 0.00292969C20.9473 0.0146456 20.9824 0.0380774 21.0176 0.0439353C22.2539 0.254821 23.1328 0.934343 23.6836 2.05321C23.8535 2.38711 23.9121 2.74445 24.0059 3.09592ZM12.0234 1.40884C9.25195 1.40884 6.47461 1.40884 3.70312 1.40884C3.46875 1.40884 3.23438 1.42641 3.00586 1.49085C1.99805 1.77789 1.41797 2.55699 1.41211 3.64071C1.41211 9.21748 1.41211 14.7942 1.41211 20.371C1.41211 20.5819 1.42969 20.7928 1.48828 20.9978C1.76953 21.9937 2.54297 22.5912 3.5918 22.597C5.64844 22.6087 7.69922 22.597 9.75586 22.6029C9.91406 22.6029 9.94336 22.5502 9.94336 22.4037C9.9375 20.6288 9.9375 18.8597 9.94336 17.0847C9.94336 16.9207 9.90234 16.8738 9.73828 16.8797C8.94141 16.8855 8.14453 16.8797 7.34766 16.8855C7.17773 16.8855 7.125 16.8504 7.125 16.6688C7.13086 14.9348 7.13086 13.2009 7.125 11.4669C7.125 11.2795 7.18945 11.2502 7.35352 11.256C8.10938 11.2619 8.87109 11.2619 9.62695 11.2619C9.94336 11.2619 9.9375 11.2619 9.94336 10.9397C9.96094 10.1372 9.87891 9.32878 9.99023 8.5321C10.3359 6.01904 12.3809 4.23822 14.918 4.23822C16.4648 4.23822 18.0117 4.23822 19.5586 4.23237C19.7402 4.23237 19.793 4.27923 19.793 4.46083C19.7871 6.1772 19.7871 7.89944 19.793 9.61582C19.793 9.80913 19.752 9.86185 19.5527 9.86185C18.3047 9.85013 17.0508 9.86185 15.8027 9.85599C15.627 9.85599 15.5566 9.88528 15.5625 10.0845C15.5801 10.3891 15.5859 10.6937 15.5625 10.9983C15.5449 11.2268 15.6211 11.2795 15.8438 11.2795C17.1328 11.2678 18.4219 11.2736 19.7109 11.2736C19.8223 11.2736 19.9453 11.2385 19.8926 11.4435C19.8164 11.754 19.7871 12.0762 19.7344 12.3866C19.5 13.816 19.2539 15.2453 19.0254 16.6746C18.9961 16.8445 18.9316 16.8972 18.7559 16.8972C17.7715 16.8855 16.7871 16.8972 15.8027 16.8855C15.6035 16.8855 15.5625 16.9441 15.5625 17.1316C15.5684 18.8831 15.5684 20.6288 15.5625 22.3803C15.5625 22.5619 15.6035 22.6146 15.791 22.6146C17.3145 22.6087 18.8379 22.6087 20.3613 22.6087C20.5781 22.6087 20.8008 22.5912 21.0117 22.5267C22.0137 22.2397 22.5996 21.4606 22.5996 20.3944C22.6055 14.8118 22.5996 9.22919 22.5996 3.64071C22.5996 3.28924 22.541 2.94362 22.377 2.62143C21.9551 1.77789 21.252 1.40884 20.3438 1.40884C17.5723 1.40298 14.7949 1.40884 12.0234 1.40884Z" fill="white"/>
</svg>
