<svg width="25" height="24" viewBox="0 0 25 24" fill="none" xmlns="http://www.w3.org/2000/svg">
<path d="M24.0059 3.09375C24.0059 9.0293 24.0059 14.9707 24.0059 20.9062C23.9941 20.9414 23.9707 20.9766 23.9648 21.0117C23.6719 22.7578 22.248 23.9941 20.502 23.9941C14.8359 24 9.17578 24 3.50977 23.9941C1.57031 23.9941 0.0117188 22.4355 0.0117188 20.4961C0.00585938 14.8359 -4.65661e-10 9.16992 0.0175781 3.50391C0.0234375 2.05078 0.738281 1.00781 2.01562 0.339844C2.35547 0.164063 2.73633 0.0996094 3.09961 0C9.03516 0 14.9766 0 20.9121 0C20.9473 0.0117188 20.9824 0.0351562 21.0176 0.0410156C22.2539 0.251953 23.1328 0.931641 23.6836 2.05078C23.8535 2.38477 23.9121 2.74219 24.0059 3.09375ZM12.0059 22.5938C14.7715 22.5938 17.5371 22.5938 20.3027 22.5938C20.5371 22.5938 20.7715 22.582 21 22.5176C22.0195 22.2305 22.6055 21.4453 22.6055 20.3496C22.6055 14.7891 22.6055 9.22852 22.6055 3.66797C22.6055 3.45117 22.5879 3.22852 22.5293 3.01758C22.248 1.99805 21.4512 1.40625 20.3613 1.40625C14.7949 1.40625 9.22266 1.40625 3.65625 1.40625C3.43945 1.40625 3.2168 1.42383 3.00586 1.48828C1.99805 1.77539 1.41797 2.56055 1.41211 3.63867C1.41211 9.20508 1.41211 14.7773 1.41211 20.3438C1.41211 20.707 1.46484 21.0586 1.62891 21.3867C2.05078 22.2188 2.75391 22.5879 3.66211 22.5879C6.44531 22.5996 9.22852 22.5938 12.0059 22.5938Z" fill="white"/>
<path d="M18.334 12.0059C18.3282 15.4981 15.4805 18.334 11.9942 18.3223C8.50785 18.3223 5.67191 15.4688 5.68363 11.9824C5.69535 8.50196 8.53129 5.67188 12.0118 5.67774C15.4981 5.67188 18.3399 8.51954 18.334 12.0059ZM12.0059 7.07813C9.31058 7.07813 7.08402 9.3047 7.08402 12C7.08402 14.6953 9.31058 16.9219 12.0059 16.9219C14.7012 16.9219 16.9278 14.6953 16.9278 12C16.9278 9.3047 14.7012 7.07813 12.0059 7.07813Z" fill="white"/>
<path d="M19.0489 7.07815C17.8828 7.08401 16.9278 6.12893 16.9336 4.96878C16.9336 3.81448 17.877 2.87112 19.0313 2.86526C20.1914 2.8594 21.1524 3.81448 21.1465 4.97464C21.1465 6.12307 20.2032 7.07229 19.0489 7.07815ZM19.7403 4.96292C19.7344 4.58792 19.4063 4.26565 19.0313 4.26565C18.6563 4.27151 18.334 4.59964 18.334 4.97464C18.3399 5.34964 18.668 5.6719 19.043 5.6719C19.418 5.66604 19.7461 5.33206 19.7403 4.96292Z" fill="white"/>
</svg>
