<svg width="25" height="24" viewBox="0 0 25 24" fill="none" xmlns="http://www.w3.org/2000/svg">
<path d="M0.00585938 3.06961C0.0496093 2.90594 0.0808593 2.73597 0.130859 2.57229C0.587109 0.941831 2.09336 -0.115765 3.76835 0.0101394C5.36835 0.129748 6.6996 1.41397 6.93085 3.05073C7.21835 5.14703 5.5121 7.06078 3.3996 6.99783C1.70586 6.94746 0.343359 5.75767 0.0496093 4.07055C0.0433593 4.03278 0.0183594 4.0013 0.00585938 3.96353C0.00585938 3.66766 0.00585938 3.36549 0.00585938 3.06961ZM3.48085 5.57511C4.61835 5.57511 5.5371 4.64971 5.5371 3.51028C5.5371 2.36455 4.60585 1.42027 3.4746 1.42027C2.35586 1.42027 1.41836 2.36455 1.41211 3.49139C1.40586 4.63712 2.34336 5.57511 3.48085 5.57511Z" fill="white"/>
<path d="M13.8805 8.43793C14.693 7.78323 15.5555 7.35516 16.518 7.15371C20.0117 6.42976 23.3867 8.63938 23.9429 12.2088C23.9804 12.4669 24.0054 12.725 24.0054 12.9831C23.9992 16.5651 23.9992 20.1407 24.0054 23.7227C24.0054 23.943 23.9429 23.9934 23.7367 23.9871C21.8304 23.9808 19.9242 23.9808 18.018 23.9871C17.8242 23.9871 17.7742 23.9367 17.7742 23.7416C17.7805 20.8206 17.7805 17.9059 17.7742 14.985C17.7742 14.1162 17.218 13.4174 16.3805 13.2034C15.3117 12.9264 14.2242 13.7196 14.1492 14.8339C14.143 14.9661 14.1367 15.0983 14.1367 15.2368C14.1367 18.0633 14.1367 20.8836 14.143 23.7101C14.143 23.9305 14.0992 23.9997 13.868 23.9997C11.9617 23.9871 10.0555 23.9934 8.14922 23.9997C7.96797 23.9997 7.91797 23.9493 7.91797 23.7668C7.92422 18.4347 7.92422 13.0964 7.91797 7.76434C7.91797 7.58808 7.95547 7.52513 8.14922 7.52513C9.98672 7.53142 11.818 7.53142 13.6555 7.52513C13.8492 7.52513 13.893 7.58808 13.8805 7.76434C13.868 7.9595 13.8805 8.16724 13.8805 8.43793ZM9.33047 15.7467C9.33047 17.9122 9.33047 20.0715 9.33047 22.237C9.33047 22.621 9.28047 22.5644 9.64297 22.5644C10.5555 22.5644 11.468 22.5644 12.3867 22.5644C12.7617 22.5644 12.7117 22.621 12.7117 22.2433C12.7117 19.8826 12.7117 17.5219 12.7117 15.1612C12.7117 14.9661 12.7242 14.7709 12.743 14.5758C13.0055 12.3599 15.4117 11.0379 17.3867 12.064C18.593 12.6872 19.1805 13.7196 19.1867 15.0857C19.193 17.4904 19.1992 19.9015 19.193 22.3063C19.193 22.514 19.243 22.5707 19.4492 22.5707C20.418 22.5581 21.3867 22.5581 22.3554 22.5707C22.5554 22.5707 22.5929 22.5077 22.5929 22.3189C22.5867 19.2531 22.5867 16.181 22.5867 13.1153C22.5867 12.7061 22.5367 12.2969 22.4179 11.9066C21.8492 10.018 20.5867 8.8723 18.6805 8.52606C16.8055 8.19242 15.2367 8.81564 14.0242 10.3076C13.8492 10.5216 13.7805 10.8679 13.5117 10.9497C13.2555 11.0316 12.9555 10.956 12.6742 10.9686C12.5055 10.9749 12.443 10.9308 12.4492 10.7483C12.4617 10.2195 12.443 9.69697 12.4555 9.16818C12.4617 8.99191 12.4055 8.94155 12.2305 8.94155C11.3492 8.94784 10.468 8.95414 9.58047 8.94155C9.37422 8.94155 9.30547 8.98562 9.30547 9.21224C9.33672 11.3841 9.33047 13.5622 9.33047 15.7467Z" fill="white"/>
<path d="M0.375391 15.7286C0.375391 13.0783 0.375391 10.428 0.369141 7.77143C0.369141 7.55109 0.43164 7.50073 0.64414 7.50073C2.54414 7.50703 4.43788 7.50703 6.33788 7.50073C6.54413 7.50073 6.60038 7.55109 6.60038 7.75884C6.59413 13.0783 6.59413 18.3977 6.60038 23.7172C6.60038 23.9438 6.52538 23.9816 6.32538 23.9816C4.42538 23.9753 2.53164 23.9753 0.63164 23.9816C0.431641 23.9816 0.369141 23.9375 0.369141 23.7235C0.375391 21.0669 0.375391 18.3977 0.375391 15.7286ZM5.16913 15.7726C5.16913 13.5756 5.16913 11.3849 5.16913 9.18785C5.16913 9.01788 5.14413 8.93604 4.94413 8.94234C3.96288 8.95493 2.97539 8.94863 1.99414 8.94234C1.83789 8.94234 1.77539 8.97381 1.78164 9.15008C1.78789 13.5567 1.78789 17.9634 1.78164 22.37C1.78164 22.54 1.83164 22.5778 1.99414 22.5778C2.96914 22.5715 3.94413 22.5652 4.92538 22.5778C5.13788 22.5778 5.18163 22.5148 5.18163 22.3134C5.16913 20.1289 5.16913 17.9508 5.16913 15.7726Z" fill="white"/>
</svg>
