<svg width="17" height="20" viewBox="0 0 17 20" fill="none" xmlns="http://www.w3.org/2000/svg">
<path fill-rule="evenodd" clip-rule="evenodd" d="M0.53125 8.6729C0.53125 4.36052 4.13489 0.875 8.49386 0.875C12.8651 0.875 16.4688 4.36052 16.4688 8.6729C16.4688 10.846 15.6784 12.8634 14.3777 14.5734C12.9426 16.4595 11.1739 18.1029 9.18301 19.3929C8.72736 19.691 8.31613 19.7135 7.81605 19.3929C5.81382 18.1029 4.04508 16.4595 2.62234 14.5734C1.32061 12.8634 0.53125 10.846 0.53125 8.6729ZM5.86914 8.9157C5.86914 10.3603 7.04798 11.4966 8.49341 11.4966C9.93978 11.4966 11.13 10.3603 11.13 8.9157C11.13 7.4823 9.93978 6.29077 8.49341 6.29077C7.04798 6.29077 5.86914 7.4823 5.86914 8.9157Z" fill="black"/>
</svg>
