<svg width="19" height="18" viewBox="0 0 19 18" fill="none" xmlns="http://www.w3.org/2000/svg">
<path fill-rule="evenodd" clip-rule="evenodd" d="M14.1303 0.3125C15.3875 0.3125 16.5969 0.809375 17.4866 1.70094C18.3772 2.59063 18.875 3.79063 18.875 5.04688V12.4531C18.875 15.0687 16.7469 17.1875 14.1303 17.1875H4.86875C2.25219 17.1875 0.125 15.0687 0.125 12.4531V5.04688C0.125 2.43125 2.24281 0.3125 4.86875 0.3125H14.1303ZM15.6214 6.44381L15.6964 6.36881C15.9205 6.09694 15.9205 5.70319 15.6861 5.43131C15.5558 5.29163 15.3768 5.20631 15.1902 5.18756C14.9933 5.17725 14.8058 5.24381 14.6643 5.37506L10.4371 8.75007C9.89332 9.201 9.11425 9.201 8.56207 8.75007L4.34332 5.37506C4.05176 5.15944 3.64863 5.18756 3.40582 5.44069C3.15269 5.69381 3.12457 6.09694 3.33926 6.37819L3.46207 6.50006L7.72769 9.82819C8.25269 10.2407 8.88926 10.4657 9.55582 10.4657C10.2205 10.4657 10.8683 10.2407 11.3924 9.82819L15.6214 6.44381Z" fill="black"/>
</svg>
