<svg width="47" height="47" viewBox="0 0 47 47" fill="none" xmlns="http://www.w3.org/2000/svg">
<g clip-path="url(#clip0_1183_1956)">
<path d="M18.0717 17.9147H25.1681C25.5484 17.9147 25.8567 17.6063 25.8567 17.226C25.8567 16.8457 25.5484 16.5374 25.1681 16.5374H18.0717C17.6914 16.5374 17.3831 16.8457 17.3831 17.226C17.3831 17.6063 17.6914 17.9147 18.0717 17.9147Z" fill="#1B1B1B"/>
<path d="M18.0717 23.6757H25.1681C25.5484 23.6757 25.8567 23.3673 25.8567 22.987C25.8567 22.6067 25.5484 22.2983 25.1681 22.2983H18.0717C17.6914 22.2983 17.3831 22.6067 17.3831 22.987C17.3831 23.3673 17.6914 23.6757 18.0717 23.6757Z" fill="#1B1B1B"/>
<path d="M25.8567 28.7482C25.8567 28.3679 25.5484 28.0596 25.1681 28.0596H18.0717C17.6914 28.0596 17.3831 28.3679 17.3831 28.7482C17.3831 29.1285 17.6914 29.4369 18.0717 29.4369H25.1681C25.5484 29.4369 25.8567 29.1285 25.8567 28.7482Z" fill="#1B1B1B"/>
<path d="M41.4827 11.2568C41.0174 10.9052 40.3652 11.1036 39.8491 11.3156C38.1036 12.0326 34.982 14.3242 33.1509 17.3232H29.9446V12.9661C29.9446 12.319 29.4182 11.7925 28.7711 11.7925H27.4778V9.19351C27.4778 8.54644 26.9513 8.01989 26.3042 8.01989H22.3086V6.34808C22.3086 5.96777 22.0002 5.65942 21.6199 5.65942C21.2396 5.65942 20.9313 5.96777 20.9313 6.34808V8.01989H16.9354C16.2884 8.01989 15.7618 8.54634 15.7618 9.19351V11.7926H14.4689C13.8218 11.7926 13.2952 12.319 13.2952 12.9662V17.3235H7.12318C6.42259 17.3235 5.85262 17.8935 5.85262 18.5941V20.2784C5.85262 20.6587 6.16097 20.967 6.54128 20.967C6.9216 20.967 7.22994 20.6587 7.22994 20.2784V18.7009H13.2953V32.8039H7.22994V23.4923C7.22994 23.112 6.9216 22.8037 6.54128 22.8037C6.16097 22.8037 5.85262 23.112 5.85262 23.4923V32.8039H4.17614C3.52897 32.8039 2.94257 33.1351 2.6076 33.6897C2.27447 34.2412 2.25419 34.9101 2.55326 35.479C6.29049 42.5855 13.5961 47.0001 21.6194 47.0001C26.1036 47.0001 30.4014 45.6351 34.0482 43.0527C34.3587 42.8329 34.4321 42.4031 34.2123 42.0927C33.9925 41.7822 33.5626 41.7087 33.2522 41.9286C31.3855 43.2505 29.336 44.2305 27.1756 44.8481C28.7787 43.5306 30.2042 41.6487 31.353 39.3177H36.2604C36.06 39.5294 35.8552 39.7375 35.6452 39.9411C35.3721 40.2058 35.3654 40.6418 35.6301 40.9149C35.8949 41.188 36.3309 41.1947 36.604 40.93C38.2495 39.3347 39.6229 37.5007 40.6862 35.4789C40.9854 34.91 40.9651 34.2412 40.632 33.6896C40.297 33.135 39.7105 32.8039 39.0634 32.8039H37.3871V28.3993C37.563 28.4136 37.7394 28.422 37.9161 28.4219C38.5868 28.4219 39.2597 28.3187 39.9076 28.1115C42.8047 27.1833 44.6987 24.9173 45.2405 21.731C45.9073 17.81 44.3269 13.4051 41.4827 11.2568ZM32.4306 18.7007C32.1177 19.4189 31.8897 20.1661 31.7783 20.933C31.5252 22.6722 31.838 24.304 32.659 25.6093C31.8524 26.139 30.9514 26.5851 29.9446 26.9536V18.7007H32.4306ZM34.062 26.3067C36.5679 24.3331 38.1312 21.6883 39.1497 18.6234C39.2541 18.3092 39.5949 18.1386 39.909 18.2428C40.2232 18.3473 40.3939 18.6879 40.2896 19.0021C39.3192 21.9222 38.0159 24.1898 36.3054 25.9347C34.6635 27.6096 32.6261 28.8198 30.0766 29.6343C29.7557 29.7372 29.4208 29.5548 29.3219 29.245C29.273 29.0922 29.2866 28.9296 29.3601 28.787C29.4337 28.6444 29.5582 28.539 29.7111 28.4902C31.1737 28.023 32.8603 27.2531 34.062 26.3067ZM20.9307 45.5845C18.9481 45.3687 17.0328 44.2131 15.3609 42.214C14.6547 41.3699 14.0096 40.3976 13.4328 39.3178H20.9307V45.5845ZM12.7619 37.9403C12.2456 36.7809 11.8012 35.5221 11.4373 34.1813H20.9307V37.9403H12.7619ZM22.3081 34.1814H31.8024C31.4384 35.5221 30.994 36.781 30.4778 37.9404H22.3081V34.1814ZM17.1393 9.3973H26.1003V11.7926H17.1393V9.3973ZM14.6728 13.17H28.5672V27.5969C28.3936 27.7541 28.2465 27.9415 28.1359 28.1559C27.8938 28.6254 27.849 29.1612 28.0098 29.6645C28.118 30.0029 28.3138 30.2976 28.5672 30.5268V32.804H14.6728V13.17ZM3.78664 34.4018C3.82667 34.3355 3.94481 34.1813 4.17623 34.1813H10.0114C10.3574 35.5194 10.7776 36.7763 11.2622 37.9403H5.78359C5.02911 36.9807 4.35431 35.9443 3.77251 34.8379C3.66777 34.6388 3.74745 34.4666 3.78664 34.4018ZM6.96997 39.3178H11.8866C13.0347 41.6475 14.4593 43.5287 16.0614 44.846C12.5896 43.8542 9.45023 41.9461 6.96997 39.3178ZM22.3081 45.5846V39.3178H29.8068C28.2176 42.2933 25.6631 45.2198 22.3081 45.5846ZM39.4529 34.4018C39.492 34.4666 39.5718 34.6388 39.4671 34.8379C38.8905 35.9342 38.2159 36.9712 37.4513 37.9403H31.9775C32.4621 36.7764 32.8823 35.5194 33.2283 34.1813H39.0634C39.2949 34.1814 39.413 34.3355 39.4529 34.4018ZM36.0098 32.8039H29.9446V31.0387C30.1313 31.0339 30.3163 31.0039 30.496 30.9464C32.6119 30.2704 34.4078 29.3366 35.9421 28.1133C35.9647 28.1206 35.9872 28.1275 36.0098 28.1345V32.8039ZM43.8826 21.5001C43.6213 23.0372 42.7027 25.7696 39.4877 26.7996C38.7423 27.038 37.9561 27.101 37.1941 26.9927C37.2255 26.9613 37.2578 26.9308 37.289 26.899C39.1496 25.001 40.5587 22.5601 41.5967 19.4365C41.9405 18.4015 41.3783 17.2796 40.3432 16.9357C39.3082 16.5922 38.1864 17.1543 37.8426 18.1891C36.9988 20.7282 35.8937 22.6714 34.4641 24.1298C34.2416 24.3567 34.0086 24.5724 33.7664 24.7792C33.1649 23.7663 32.9425 22.497 33.1413 21.1313C33.538 18.4017 35.6581 16.1069 36.8867 14.9819C38.707 13.3148 40.2961 12.5471 40.7777 12.453C43.1175 14.3183 44.4485 18.1719 43.8826 21.5001Z" fill="#1B1B1B"/>
<path d="M3.21869 25.9516C3.58459 25.8476 3.79674 25.4666 3.69273 25.1008C3.64491 24.9325 3.59855 24.76 3.55494 24.588C3.4615 24.2194 3.08706 23.9961 2.71812 24.0897C2.34947 24.1831 2.12631 24.5577 2.21976 24.9265C2.26658 25.1112 2.31642 25.2966 2.36783 25.4775C2.47229 25.8447 2.85444 26.0554 3.21869 25.9516Z" fill="#1B1B1B"/>
<path d="M24.5004 1.58309C25.315 1.7094 25.5701 1.79807 25.7216 1.79807C26.0388 1.79807 26.3243 1.57749 26.3941 1.25482C26.4745 0.883043 26.2383 0.516498 25.8665 0.436176C25.486 0.353926 25.0975 0.281866 24.7116 0.222014C24.3357 0.16409 23.9839 0.421213 23.9255 0.79703C23.8671 1.17285 24.1246 1.5248 24.5004 1.58309Z" fill="#1B1B1B"/>
<path d="M19.707 1.45524C19.8129 1.45524 20.1389 1.40567 20.8656 1.37685C21.2456 1.36179 21.5415 1.04142 21.5264 0.661383C21.5114 0.281344 21.1905 -0.0143339 20.811 0.000537239C20.4213 0.0160509 20.0275 0.043131 19.6405 0.0811349C19.262 0.118313 18.9852 0.455299 19.0224 0.833869C19.0574 1.18949 19.357 1.45524 19.707 1.45524Z" fill="#1B1B1B"/>
<path d="M33.0977 5.31515C33.3832 5.53868 33.6661 5.77386 33.9386 6.01409C34.2251 6.26662 34.6602 6.23707 34.9107 5.95295C35.1622 5.66765 35.1348 5.23244 34.8495 4.98092C34.5571 4.72306 34.2534 4.47071 33.9468 4.23066C33.6475 3.9963 33.2145 4.04881 32.98 4.34835C32.7455 4.64779 32.7982 5.08061 33.0977 5.31515Z" fill="#1B1B1B"/>
<path d="M29.0383 2.89681C29.3708 3.0413 29.7036 3.19772 30.0277 3.36185C30.3684 3.53434 30.7822 3.39646 30.9532 3.05855C31.1251 2.71918 30.9892 2.30481 30.6499 2.13306C30.3018 1.95681 29.9442 1.78873 29.5871 1.63359C29.2384 1.48213 28.8326 1.64195 28.681 1.99077C28.5294 2.33951 28.6893 2.74516 29.0383 2.89681Z" fill="#1B1B1B"/>
<path d="M14.9338 2.54993C15.1658 2.54993 15.1845 2.4697 16.2079 2.15961C16.5719 2.04927 16.7776 1.66482 16.6673 1.30076C16.5571 0.93669 16.1723 0.730973 15.8085 0.841313C15.4357 0.954223 15.0612 1.07989 14.6954 1.21483C14.3385 1.34647 14.156 1.74248 14.2876 2.0993C14.3902 2.37763 14.6537 2.54993 14.9338 2.54993Z" fill="#1B1B1B"/>
<path d="M2.54455 16.8153C2.91679 16.8909 3.28067 16.6502 3.35631 16.2771C3.42828 15.9216 3.51191 15.5636 3.60472 15.213C3.70202 14.8452 3.48281 14.4682 3.11516 14.3709C2.74724 14.2738 2.37042 14.4928 2.27311 14.8605C2.17342 15.2372 2.08364 15.6218 2.00626 16.0036C1.9308 16.3763 2.17177 16.7397 2.54455 16.8153Z" fill="#1B1B1B"/>
<path d="M3.01129 20.9899C2.98063 20.4067 2.98559 19.954 2.98541 19.8962C2.98421 19.5158 2.68083 19.2059 2.30042 19.2039C2.29913 19.2039 2.29803 19.2039 2.29675 19.2039C1.91809 19.2039 1.60689 19.5099 1.608 19.8889C1.608 19.903 1.60102 20.4009 1.63572 21.062C1.655 21.4296 1.95912 21.7146 2.32291 21.7146C2.71947 21.7146 3.03195 21.3826 3.01129 20.9899Z" fill="#1B1B1B"/>
<path d="M3.95561 12.1212C4.29498 12.2878 4.7088 12.1494 4.87716 11.8059C5.0367 11.4802 5.20845 11.1546 5.38736 10.8381C5.57454 10.507 5.45786 10.0868 5.12684 9.89957C4.79573 9.71249 4.37558 9.82898 4.18831 10.1601C3.99609 10.5001 3.81167 10.8498 3.64029 11.1997C3.47285 11.5413 3.61403 11.9538 3.95561 12.1212Z" fill="#1B1B1B"/>
<path d="M10.5922 4.81583C10.9153 4.81583 10.9257 4.69117 11.8994 4.09468C12.2237 3.89594 12.3255 3.47193 12.1268 3.14761C11.928 2.82329 11.5041 2.7214 11.1797 2.92023C10.8478 3.12365 10.5175 3.33956 10.1981 3.56189C9.88591 3.77917 9.80908 4.20842 10.0264 4.52062C10.1603 4.71284 10.3745 4.81583 10.5922 4.81583Z" fill="#1B1B1B"/>
<path d="M6.50725 7.934C6.79568 8.18185 7.23052 8.1489 7.47846 7.86038C7.71511 7.58489 7.96296 7.3129 8.21486 7.05211C8.47914 6.77855 8.47152 6.34252 8.19796 6.07832C7.92441 5.81404 7.48837 5.82175 7.22418 6.09522C6.95375 6.3752 6.68781 6.66711 6.43372 6.96288C6.18578 7.25131 6.21873 7.68615 6.50725 7.934Z" fill="#1B1B1B"/>
<path d="M36.7464 9.11126C36.9695 9.4208 37.4003 9.48882 37.7078 9.26713C38.0163 9.04471 38.086 8.61427 37.8636 8.30574C37.7518 8.1507 37.6373 7.99657 37.5234 7.84777C37.2923 7.54566 36.8599 7.48829 36.5579 7.71962C36.2559 7.95076 36.1985 8.38304 36.4298 8.68514C36.5357 8.82348 36.6422 8.96686 36.7464 9.11126Z" fill="#1B1B1B"/>
</g>
<defs>
<clipPath id="clip0_1183_1956">
<rect width="47" height="47" fill="white"/>
</clipPath>
</defs>
</svg>
