<svg width="47" height="47" viewBox="0 0 47 47" fill="none" xmlns="http://www.w3.org/2000/svg">
<path d="M11.1549 12.7222H24.664C25.5541 12.7222 25.5541 11.3452 24.664 11.3452H11.1549C10.2648 11.3452 10.2648 12.7222 11.1549 12.7222Z" fill="#1B1B1B"/>
<path d="M11.1549 17.7737H21.5428C22.433 17.7737 22.433 16.3967 21.5428 16.3967H11.1549C10.2648 16.3967 10.2648 17.7737 11.1549 17.7737Z" fill="#1B1B1B"/>
<path d="M11.1549 22.8245H20.0741C20.9642 22.8245 20.9642 21.4475 20.0741 21.4475H11.1549C10.2648 21.4475 10.2648 22.8245 11.1549 22.8245Z" fill="#1B1B1B"/>
<path d="M23.8416 39.6906H23.3855V32.9619C23.3855 32.5816 23.0773 32.2734 22.697 32.2734H19.9341V29.8464C19.9341 29.4662 19.6259 29.158 19.2456 29.158H15.8025C15.4222 29.158 15.1141 29.4662 15.1141 29.8464V34.0358H12.3565C11.9762 34.0358 11.6681 34.3441 11.6681 34.7243V39.6906H11.2119C10.8316 39.6906 10.5234 39.9988 10.5234 40.379C10.5234 40.7593 10.8316 41.0675 11.2119 41.0675H23.8415C24.2218 41.0675 24.53 40.7593 24.53 40.379C24.53 39.9988 24.2219 39.6906 23.8416 39.6906ZM13.0451 39.6906V35.4128H15.1113V39.6906H13.0451ZM16.4911 39.6906V30.5349H18.5572V39.6906H16.4911ZM19.9423 39.6906V33.6504H22.0085V39.6906H19.9423Z" fill="#1B1B1B"/>
<path d="M46.9945 21.4442C46.9048 18.546 45.7244 15.8187 43.6704 13.7647C42.6849 12.7792 41.5616 12.0135 40.3623 11.4665C40.3422 11.455 40.3214 11.4442 40.2998 11.4345C40.2778 11.4246 40.2555 11.416 40.2331 11.4086C38.6819 10.7246 37.0082 10.4037 35.342 10.4467V6.6534C35.342 5.77159 34.6248 5.0542 33.7431 5.0542H32.7501V4.1946C32.7501 3.31279 32.0329 2.5954 31.1511 2.5954H30.1554V1.59921C30.1555 0.717399 29.4382 0 28.5566 0H1.59893C0.717215 0 0 0.717399 0 1.59921V40.3471C0 41.2289 0.717215 41.9463 1.59893 41.9463H2.59466V42.9425C2.59466 43.8243 3.31187 44.5417 4.19074 44.5417L5.18666 44.5457V45.4013C5.18666 46.2831 5.90387 47.0005 6.78559 47.0005H28.2918C28.4719 47.0005 28.6499 46.9271 28.7775 46.8L35.1394 40.4683C35.2692 40.339 35.3422 40.1634 35.3422 39.9803V33.1547C35.435 33.157 35.5278 33.1592 35.6206 33.1592C37.5612 33.1592 39.4935 32.6633 41.1836 31.7163C41.9603 31.2812 41.2872 30.0802 40.5106 30.515C36.8347 32.5749 32.2343 32.0673 29.0832 29.3258L35.8442 22.5648L45.0873 25.0141C44.6799 26.2186 44.036 27.3616 43.1521 28.3699C42.5654 29.0393 43.6006 29.947 44.1875 29.2777C46.0868 27.1112 47.0836 24.3292 46.9945 21.4442ZM39.0954 12.4335L35.0612 21.4001L28.1082 28.3532C24.6929 24.4359 24.8491 18.4672 28.578 14.7383C31.4167 11.8995 35.5537 11.1317 39.0954 12.4335ZM4.19341 43.1646C4.07104 43.1646 3.97153 43.0649 3.97153 42.9424V4.1946C3.97153 4.07205 4.07104 3.97236 4.19341 3.97236H8.99607C9.88624 3.97236 9.88624 2.5954 8.99607 2.5954H4.19341C3.31178 2.5954 2.59457 3.31279 2.59457 4.1946V40.5692H1.59893C1.47656 40.5692 1.37696 40.4695 1.37696 40.347V1.59921C1.37696 1.47666 1.47656 1.37696 1.59893 1.37696H28.5566C28.6789 1.37696 28.7785 1.47666 28.7785 1.59921V2.59549H12.8517C11.9615 2.59549 11.9615 3.97245 12.8517 3.97245H31.1512C31.2736 3.97245 31.3732 4.07214 31.3732 4.19469V5.05429H6.7855C5.90387 5.05429 5.18656 5.77169 5.18656 6.65349V43.1688L4.19341 43.1646ZM6.56353 45.4012V6.6534C6.56353 6.53085 6.66313 6.43116 6.7855 6.43116H33.7431C33.8655 6.43116 33.9651 6.53085 33.9651 6.6534V10.5657C31.6357 10.9096 29.3934 11.9756 27.6043 13.7648C23.1749 18.1942 23.1749 25.4014 27.6043 29.8309C29.3465 31.5731 31.5428 32.677 33.9651 33.0352V39.2327H29.2022C28.3206 39.2327 27.6033 39.9501 27.6033 40.8319V45.6234H6.7855C6.66313 45.6234 6.56353 45.5237 6.56353 45.4012ZM28.9802 44.6444V40.8319C28.9802 40.7093 29.0798 40.6096 29.2022 40.6096H32.9967L28.9802 44.6444ZM36.5981 21.3401L40.3517 12.9972C41.1948 13.4482 41.9865 14.0282 42.6966 14.7384C45.1097 17.1516 46.0361 20.5312 45.437 23.6824L36.5981 21.3401Z" fill="#1B1B1B"/>
</svg>
