<svg width="47" height="47" viewBox="0 0 47 47" fill="none" xmlns="http://www.w3.org/2000/svg">
<path d="M45.9776 20.0861V17.0885H45.9765C45.9765 16.9891 45.9574 16.8889 45.916 16.7943C45.7991 16.5271 45.5352 16.3546 45.2438 16.3546C45.2426 16.3546 45.2414 16.3546 45.2402 16.3547L37.8405 16.3906L39.1076 15.0374C39.2349 14.9014 39.3058 14.722 39.3058 14.5358V11.6005H39.3046C39.3046 11.5019 39.286 11.4026 39.2452 11.3086C39.1289 11.0402 38.8644 10.8667 38.572 10.8667H35.2747L39.1076 6.77298C39.2349 6.63703 39.3058 6.45765 39.3058 6.2714V3.27386H39.3047C39.3047 3.17445 39.2857 3.0743 39.2443 2.97965C39.1274 2.71253 38.8634 2.54004 38.5721 2.54004C38.5709 2.54004 38.5698 2.54004 38.5686 2.54013L25.3576 2.60255C25.1559 2.60347 24.9634 2.68746 24.8255 2.83471L10.134 18.5229L10.1345 18.5233C10.0116 18.6545 9.93576 18.8304 9.93576 19.0244V21.9596C9.93576 22.0888 9.96945 22.2102 10.0282 22.3157L0.64399 32.3375L0.644541 32.338C0.521625 32.4692 0.445801 32.6451 0.445801 32.8391V35.7743C0.445801 36.1796 0.774342 36.5081 1.17963 36.5081H4.47789L0.644082 40.6019L0.644633 40.6023C0.521717 40.7335 0.445893 40.9094 0.445893 41.1034V44.0411C0.445893 44.4464 0.774434 44.775 1.17972 44.775H14.3932C14.6046 44.775 14.7945 44.6851 14.9284 44.5421L14.929 44.5426L16.605 42.7521V44.0411C16.605 44.4464 16.9335 44.775 17.3388 44.775H30.5523C30.7636 44.775 30.9535 44.6851 31.0874 44.5422L31.088 44.5427L45.7795 28.852C45.9068 28.716 45.9777 28.5366 45.9777 28.3504V25.4152H45.9765C45.9765 25.3166 45.9579 25.2173 45.9171 25.1233C45.8008 24.8549 45.5363 24.6814 45.2439 24.6814H41.9457L45.7794 20.5876C45.9067 20.4517 45.9776 20.2724 45.9776 20.0861ZM43.5482 17.8305L30.2333 32.1052H19.0311L20.1055 30.9578H23.883C24.0943 30.9578 24.2843 30.8679 24.4181 30.725L24.4186 30.7255L36.4601 17.8649L43.5482 17.8305ZM15.127 42.1835V41.3933L19.702 36.5081H20.4397L15.127 42.1835ZM2.87218 40.3695L5.58496 37.4729V40.3695H2.87218ZM7.05261 36.5081H8.52025V40.3695H7.05261V36.5081ZM11.685 22.6935H13.9678L10.134 26.7873L10.1345 26.7877C10.0116 26.9189 9.93576 27.0948 9.93576 27.2888V30.224C9.93576 30.6292 10.2643 30.9578 10.6696 30.9578H15.1439L14.0741 32.1052H2.87208L11.685 22.6935ZM11.4033 19.7583H23.1493V21.2258H11.4033V19.7583ZM29.8185 35.0404H18.0725V33.573H29.8185V35.0404ZM15.127 33.1281L17.1504 30.9578H17.8974L15.1271 33.9169L15.127 33.1281ZM11.4033 29.4901V28.0227H23.1493V29.4901H11.4033ZM16.5426 26.5549V22.6935H18.0101V26.5549H16.5426ZM15.0749 26.5549H12.3621L15.0749 23.6582V26.5549ZM19.4777 22.6935H22.0402L19.4777 25.4311V22.6935ZM12.5522 36.5081L9.98772 39.2464V36.5081H12.5522ZM14.5882 36.481C14.7203 36.4447 14.8373 36.3724 14.9283 36.2752L14.9289 36.2757L16.605 34.4854V35.7743C16.605 36.1796 16.9335 36.5081 17.3388 36.5081H17.6915L14.0752 40.3695H10.9465L14.5882 36.481ZM24.6793 36.5081V40.3695H23.2118V36.5081H24.6793ZM26.1469 36.5081H28.7129L26.1469 39.2469V36.5081ZM24.6169 27.5787L37.8382 13.4579V14.2459L24.6169 28.3665V27.5787ZM36.8797 12.3344L23.5649 26.5549H20.4359L24.075 22.6672C24.2083 22.6312 24.3265 22.5586 24.4182 22.4607L24.4187 22.4612L33.9005 12.3345L36.8797 12.3344ZM24.6169 20.1022V19.3135L37.8382 5.13661V5.9816L24.6169 20.1022ZM25.6806 4.06855L36.8768 4.01567L23.564 18.2906H12.362L25.6806 4.06855ZM1.91345 33.5729H13.6594V35.0404H1.91345V33.5729ZM13.6594 43.3073H1.91345V41.8372H13.6594V43.3073ZM21.7441 37.2622V40.3696H18.8353L21.7441 37.2622ZM29.8185 43.3073H18.0725V41.8372H29.8185V43.3073ZM31.2861 42.1838V41.3932C38.0889 34.1295 42.4971 29.4221 44.51 27.2724V28.0604L31.2861 42.1838ZM43.5515 26.1491C41.595 28.2385 37.155 32.9799 30.2343 40.3695H27.1063L30.7502 36.4803C30.8811 36.4437 30.997 36.3718 31.0874 36.2753L31.088 36.2758L40.5714 26.1491H43.5515ZM31.2861 33.9172V33.1282L44.51 18.951V19.7963L31.2861 33.9172Z" fill="#1B1B1B"/>
</svg>
