<svg width="47" height="47" viewBox="0 0 47 47" fill="none" xmlns="http://www.w3.org/2000/svg">
<path d="M23.4972 16.6624H5.87369C5.49346 16.6624 5.1853 16.9706 5.1853 17.3507C5.1853 17.731 5.49346 18.0391 5.87369 18.0391H23.4973C23.8775 18.0391 24.1857 17.7309 24.1857 17.3507C24.1857 16.9706 23.8775 16.6624 23.4972 16.6624Z" fill="#1B1B1B"/>
<path d="M23.4972 21.5H5.87369C5.49346 21.5 5.1853 21.8083 5.1853 22.1884C5.1853 22.5685 5.49346 22.8768 5.87369 22.8768H23.4973C23.8775 22.8768 24.1857 22.5685 24.1857 22.1884C24.1857 21.8083 23.8775 21.5 23.4972 21.5Z" fill="#1B1B1B"/>
<path d="M23.4972 26.335H5.87369C5.49346 26.335 5.1853 26.6432 5.1853 27.0233C5.1853 27.4035 5.49346 27.7117 5.87369 27.7117H23.4973C23.8775 27.7117 24.1857 27.4035 24.1857 27.0233C24.1857 26.6432 23.8775 26.335 23.4972 26.335Z" fill="#1B1B1B"/>
<path d="M24.1857 31.8617C24.1857 31.4815 23.8775 31.1733 23.4973 31.1733H5.87369C5.49346 31.1733 5.1853 31.4816 5.1853 31.8617C5.1853 32.2419 5.49346 32.5501 5.87369 32.5501H23.4973C23.8775 32.5501 24.1857 32.2419 24.1857 31.8617Z" fill="#1B1B1B"/>
<path d="M5.87369 38.262C5.49346 38.262 5.1853 38.5702 5.1853 38.9503C5.1853 39.3305 5.49346 39.6387 5.87369 39.6387H14.708C15.0883 39.6387 15.3964 39.3305 15.3964 38.9503C15.3964 38.5702 15.0883 38.262 14.708 38.262H5.87369Z" fill="#1B1B1B"/>
<path d="M31.4309 8.52414V6.29036C31.4309 5.4394 30.7386 4.74707 29.8876 4.74707H15.7539C14.9029 4.74707 14.2107 5.4394 14.2107 6.29036V8.52414C14.2107 9.3751 14.9029 10.0673 15.7539 10.0673H16.9474C17.3277 10.0673 17.6358 9.75909 17.6358 9.37896C17.6358 8.99873 17.3277 8.69057 16.9474 8.69057H15.7539C15.6622 8.69057 15.5876 8.61594 15.5876 8.52424V6.29036C15.5876 6.19865 15.6622 6.12393 15.7539 6.12393H29.8876C29.9794 6.12393 30.054 6.19856 30.054 6.29036V8.52414C30.054 8.61585 29.9794 8.69048 29.8876 8.69048H20.1658C19.7856 8.69048 19.4774 8.99873 19.4774 9.37886C19.4774 9.75909 19.7856 10.0672 20.1658 10.0672H29.8877C30.7386 10.0674 31.4309 9.3751 31.4309 8.52414Z" fill="#1B1B1B"/>
<path d="M36.5787 41.9783C36.1984 41.9783 35.8903 42.2866 35.8903 42.6667V43.5938C35.8903 44.7127 34.9799 45.6231 33.8608 45.6231H3.40612C2.28721 45.6231 1.37677 44.7128 1.37677 43.5938V10.5041C1.37677 10.3551 1.39421 10.209 1.42533 10.0668H7.6935C9.00215 10.0668 10.0668 9.00215 10.0668 7.6935V1.42542C10.209 1.3943 10.3551 1.37686 10.504 1.37686H33.8607C34.9798 1.37686 35.8902 2.28721 35.8902 3.40621V12.5714C35.8902 12.9516 36.1984 13.2598 36.5786 13.2598C36.9588 13.2598 37.267 12.9515 37.267 12.5714V3.40612C37.2671 1.52805 35.739 0 33.8608 0H10.5041C9.59433 0 8.73888 0.354336 8.09557 0.997648L0.997557 8.09566C0.354244 8.73897 0 9.59433 0 10.5042V43.5939C0 45.472 1.52796 47 3.40612 47H33.8608C35.739 47 37.2671 45.4719 37.2671 43.5939V42.6668C37.2671 42.2866 36.9589 41.9783 36.5787 41.9783ZM8.69004 2.35037V7.6935C8.69004 8.24299 8.24299 8.69004 7.6935 8.69004H2.35037L8.69004 2.35037Z" fill="#1B1B1B"/>
<path d="M46.0054 24.602C46.4886 23.8927 46.6136 23.0178 46.3484 22.2016C46.0832 21.3853 45.4677 20.751 44.6599 20.4613C44.124 20.269 43.7664 19.777 43.7494 19.2079C43.7234 18.35 43.3102 17.5687 42.6158 17.0641C41.9215 16.5597 41.0505 16.4084 40.2269 16.6487C39.68 16.8082 39.102 16.6202 38.7535 16.17C38.2283 15.4911 37.4348 15.1018 36.5765 15.1018C35.7183 15.1018 34.9247 15.4911 34.3995 16.17C34.051 16.6203 33.4726 16.808 32.9261 16.6487C32.1025 16.4082 31.2316 16.5597 30.5371 17.0641C29.8428 17.5687 29.4298 18.3499 29.4037 19.2078C29.3866 19.7769 29.0291 20.2689 28.4931 20.4612C27.6853 20.7509 27.0698 21.3853 26.8047 22.2015C26.5395 23.0177 26.6645 23.8927 27.1477 24.6019C27.4683 25.0726 27.4683 25.6807 27.1477 26.1512C26.6645 26.8605 26.5395 27.7354 26.8047 28.5517C27.0698 29.3679 27.6853 30.0023 28.4931 30.2921C29.0291 30.4844 29.3866 30.9763 29.4037 31.5455C29.4277 32.3345 29.7893 33.076 30.396 33.5795C30.7964 33.9118 31.2773 34.1197 31.7806 34.1892V40.4569C31.7806 40.9858 32.0675 41.4746 32.5291 41.7324C32.9902 41.9901 33.5571 41.9786 34.0077 41.7011L36.5326 40.1468C36.5737 40.1214 36.5982 40.1329 36.6209 40.1468L39.1456 41.7011C39.596 41.9784 40.1627 41.9903 40.6242 41.7323C41.086 41.4744 41.3727 40.9856 41.3727 40.4568V34.189C41.8759 34.1196 42.3568 33.9117 42.7571 33.5795C43.364 33.076 43.7257 32.3346 43.7496 31.5454C43.7667 30.9762 44.1243 30.4842 44.6602 30.292C45.4681 30.0023 46.0836 29.3679 46.3487 28.5516C46.6139 27.7353 46.4889 26.8604 46.0056 26.1511C45.6847 25.6807 45.6847 25.0727 46.0054 24.602ZM39.8672 40.5287L37.3424 38.9744C36.873 38.6855 36.2804 38.6851 35.8106 38.9744L33.2858 40.5286C33.2283 40.5636 33.1574 40.5233 33.1574 40.4568V34.0585C33.6307 34.0037 34.1 34.1963 34.3995 34.5834C34.9248 35.2621 35.7183 35.6514 36.5766 35.6514C37.4348 35.6514 38.2283 35.2621 38.7535 34.5834C39.0531 34.1962 39.5225 34.0037 39.9957 34.0585V40.4568C39.9957 40.5237 39.9238 40.5637 39.8672 40.5287ZM44.8675 26.9266C45.1091 27.2811 45.1716 27.7184 45.039 28.1263C44.9065 28.5343 44.5988 28.8513 44.195 28.9962C43.1227 29.3808 42.4076 30.3651 42.3731 31.5039C42.3609 31.9042 42.185 32.2651 41.8777 32.5201C41.5323 32.8068 41.0645 32.9149 40.6127 32.7831C39.5191 32.464 38.3618 32.84 37.6645 33.7409C37.4021 34.0801 37.0054 34.2747 36.5764 34.2747C36.1476 34.2747 35.7509 34.0802 35.4883 33.7409C34.956 33.0528 34.1554 32.6709 33.3198 32.6709C33.0611 32.6709 32.7989 32.7075 32.5404 32.783C32.0842 32.9159 31.6178 32.8045 31.2751 32.52C30.9678 32.265 30.7919 31.9041 30.7798 31.5039C30.7453 30.3651 30.0302 29.3808 28.9578 28.9961C28.554 28.8512 28.2465 28.5343 28.1139 28.1263C27.9813 27.7184 28.0437 27.281 28.2854 26.9265C28.9267 25.985 28.9267 24.7684 28.2854 23.8268C28.0437 23.4723 27.9813 23.035 28.1139 22.6269C28.2464 22.219 28.554 21.9019 28.9578 21.7572C30.0302 21.3724 30.7453 20.3881 30.7798 19.2494C30.7928 18.8206 30.9991 18.4301 31.3462 18.178C31.6931 17.9258 32.1282 17.8502 32.5403 17.9703C33.6336 18.2895 34.7912 17.9134 35.4883 17.0125C35.7508 16.6732 36.1474 16.4786 36.5764 16.4786C37.0054 16.4786 37.402 16.6731 37.6645 17.0124C38.3617 17.9134 39.5187 18.2894 40.6126 17.9703C41.0244 17.85 41.4595 17.9258 41.8066 18.1779C42.1537 18.43 42.3602 18.8206 42.3731 19.2493C42.4076 20.388 43.1227 21.3724 44.195 21.7571C44.5988 21.9018 44.9064 22.2189 45.039 22.6268C45.1716 23.0348 45.1091 23.4722 44.8675 23.8266C44.226 24.7683 44.226 25.9851 44.8675 26.9266Z" fill="#1B1B1B"/>
<path d="M36.5799 19.6069C33.3984 19.6069 30.8101 22.1952 30.8101 25.3767C30.8101 28.5582 33.3984 31.1465 36.5799 31.1465C39.7613 31.1465 42.3496 28.5582 42.3496 25.3767C42.3496 22.1952 39.7613 19.6069 36.5799 19.6069ZM36.5799 29.7698C34.1575 29.7698 32.1868 27.7991 32.1868 25.3768C32.1868 22.9546 34.1575 20.9838 36.5799 20.9838C39.0022 20.9838 40.9728 22.9545 40.9728 25.3768C40.9728 27.7992 39.0021 29.7698 36.5799 29.7698Z" fill="#1B1B1B"/>
</svg>
